<svg xmlns="http://www.w3.org/2000/svg" xmlns:xlink="http://www.w3.org/1999/xlink" width="196" zoomAndPan="magnify" viewBox="257 0 196 145" height="145" preserveAspectRatio="xMidYMid meet" version="1.0"><defs><g/><clipPath id="f75f9718c7"><path d="M 257 0 L 453 0 L 453 144.640625 L 257 144.640625 Z M 257 0 " clip-rule="nonzero"/></clipPath></defs><path fill="#5271ff" d="M 355.230469 125.875 C 394.785156 125.875 420.378906 107.261719 420.378906 107.261719 C 420.378906 107.261719 413.398438 123.550781 392.457031 130.53125 L 399.4375 142.164062 C 435.535156 141 450.625 116.902344 450.625 116.902344 C 450.625 63.386719 427.101562 20.011719 427.101562 20.011719 C 403.578125 2.0625 381.199219 2.5625 381.199219 2.5625 L 378.496094 4.886719 C 406.265625 13.527344 418.050781 28.152344 418.050781 28.152344 C 401.0625 18.679688 380.824219 11.867188 355.230469 11.867188 C 329.636719 11.867188 309.394531 18.679688 292.40625 28.152344 C 292.40625 28.152344 304.191406 13.527344 331.960938 4.886719 L 329.257812 2.5625 C 329.257812 2.5625 306.878906 2.0625 283.355469 20.011719 C 283.355469 20.011719 259.832031 63.390625 259.832031 116.902344 C 259.832031 116.902344 274.921875 141 311.019531 142.164062 L 318 130.53125 C 297.058594 123.550781 290.078125 107.261719 290.078125 107.261719 C 290.078125 107.261719 315.675781 125.875 355.230469 125.875 Z M 355.230469 125.875 " fill-opacity="1" fill-rule="nonzero"/><path fill="#ffffff" d="M 401.765625 83.996094 C 401.765625 84.605469 401.734375 85.210938 401.679688 85.820312 C 401.625 86.425781 401.539062 87.027344 401.429688 87.625 C 401.316406 88.222656 401.179688 88.816406 401.011719 89.398438 C 400.847656 89.980469 400.65625 90.554688 400.4375 91.117188 C 400.21875 91.679688 399.972656 92.230469 399.703125 92.769531 C 399.433594 93.308594 399.140625 93.828125 398.824219 94.335938 C 398.503906 94.84375 398.164062 95.332031 397.804688 95.804688 C 397.441406 96.273438 397.058594 96.726562 396.652344 97.15625 C 396.25 97.589844 395.824219 97.996094 395.382812 98.382812 C 394.941406 98.769531 394.484375 99.132812 394.007812 99.472656 C 393.535156 99.808594 393.042969 100.125 392.539062 100.410156 C 392.035156 100.699219 391.519531 100.957031 390.992188 101.191406 C 390.464844 101.425781 389.925781 101.628906 389.378906 101.808594 C 388.832031 101.984375 388.277344 102.132812 387.71875 102.25 C 387.15625 102.371094 386.59375 102.460938 386.023438 102.519531 C 385.457031 102.578125 384.886719 102.609375 384.3125 102.609375 C 383.742188 102.609375 383.171875 102.578125 382.601562 102.519531 C 382.035156 102.460938 381.46875 102.371094 380.910156 102.25 C 380.347656 102.132812 379.796875 101.984375 379.25 101.808594 C 378.703125 101.628906 378.164062 101.425781 377.636719 101.191406 C 377.109375 100.957031 376.589844 100.699219 376.085938 100.410156 C 375.582031 100.125 375.09375 99.808594 374.617188 99.472656 C 374.144531 99.132812 373.683594 98.769531 373.242188 98.382812 C 372.800781 97.996094 372.378906 97.589844 371.972656 97.15625 C 371.570312 96.726562 371.1875 96.273438 370.824219 95.804688 C 370.460938 95.332031 370.121094 94.84375 369.804688 94.335938 C 369.488281 93.828125 369.191406 93.308594 368.921875 92.769531 C 368.65625 92.230469 368.410156 91.679688 368.191406 91.117188 C 367.972656 90.554688 367.78125 89.980469 367.613281 89.398438 C 367.449219 88.816406 367.308594 88.222656 367.199219 87.625 C 367.085938 87.027344 367.003906 86.425781 366.949219 85.820312 C 366.890625 85.210938 366.863281 84.605469 366.863281 83.996094 C 366.863281 83.386719 366.890625 82.777344 366.949219 82.171875 C 367.003906 81.5625 367.085938 80.960938 367.199219 80.363281 C 367.308594 79.765625 367.449219 79.175781 367.613281 78.589844 C 367.78125 78.007812 367.972656 77.433594 368.191406 76.871094 C 368.410156 76.308594 368.65625 75.757812 368.921875 75.21875 C 369.191406 74.683594 369.488281 74.160156 369.804688 73.652344 C 370.121094 73.148438 370.460938 72.65625 370.824219 72.1875 C 371.1875 71.714844 371.570312 71.265625 371.972656 70.832031 C 372.378906 70.402344 372.800781 69.992188 373.242188 69.605469 C 373.683594 69.21875 374.144531 68.855469 374.617188 68.519531 C 375.09375 68.179688 375.582031 67.867188 376.085938 67.578125 C 376.589844 67.292969 377.109375 67.03125 377.636719 66.796875 C 378.164062 66.566406 378.703125 66.359375 379.25 66.183594 C 379.796875 66.003906 380.347656 65.859375 380.910156 65.738281 C 381.46875 65.621094 382.035156 65.53125 382.601562 65.472656 C 383.171875 65.410156 383.742188 65.382812 384.3125 65.382812 C 384.886719 65.382812 385.457031 65.410156 386.023438 65.472656 C 386.59375 65.53125 387.15625 65.621094 387.71875 65.738281 C 388.277344 65.859375 388.832031 66.003906 389.378906 66.183594 C 389.925781 66.359375 390.464844 66.566406 390.992188 66.796875 C 391.519531 67.03125 392.035156 67.292969 392.539062 67.578125 C 393.042969 67.867188 393.535156 68.179688 394.007812 68.519531 C 394.484375 68.855469 394.941406 69.21875 395.382812 69.605469 C 395.824219 69.992188 396.25 70.402344 396.652344 70.832031 C 397.058594 71.265625 397.441406 71.714844 397.804688 72.1875 C 398.164062 72.65625 398.503906 73.148438 398.824219 73.652344 C 399.140625 74.160156 399.433594 74.683594 399.703125 75.21875 C 399.972656 75.757812 400.21875 76.308594 400.4375 76.871094 C 400.65625 77.433594 400.847656 78.007812 401.011719 78.589844 C 401.179688 79.175781 401.316406 79.765625 401.429688 80.363281 C 401.539062 80.960938 401.625 81.5625 401.679688 82.171875 C 401.734375 82.777344 401.765625 83.386719 401.765625 83.996094 Z M 401.765625 83.996094 " fill-opacity="1" fill-rule="nonzero"/><path fill="#ffffff" d="M 343.597656 83.996094 C 343.597656 84.605469 343.566406 85.210938 343.511719 85.820312 C 343.457031 86.425781 343.371094 87.027344 343.261719 87.625 C 343.148438 88.222656 343.011719 88.816406 342.84375 89.398438 C 342.679688 89.980469 342.488281 90.554688 342.269531 91.117188 C 342.050781 91.679688 341.804688 92.230469 341.535156 92.769531 C 341.265625 93.308594 340.972656 93.828125 340.65625 94.335938 C 340.335938 94.84375 339.996094 95.332031 339.636719 95.804688 C 339.273438 96.273438 338.890625 96.726562 338.484375 97.15625 C 338.082031 97.589844 337.65625 97.996094 337.214844 98.382812 C 336.773438 98.769531 336.316406 99.132812 335.839844 99.472656 C 335.367188 99.808594 334.875 100.125 334.371094 100.410156 C 333.867188 100.699219 333.351562 100.957031 332.824219 101.191406 C 332.296875 101.425781 331.757812 101.628906 331.210938 101.808594 C 330.664062 101.984375 330.109375 102.132812 329.550781 102.25 C 328.988281 102.371094 328.425781 102.460938 327.855469 102.519531 C 327.289062 102.578125 326.71875 102.609375 326.144531 102.609375 C 325.574219 102.609375 325.003906 102.578125 324.433594 102.519531 C 323.867188 102.460938 323.300781 102.371094 322.742188 102.25 C 322.179688 102.132812 321.625 101.984375 321.078125 101.808594 C 320.53125 101.628906 319.996094 101.425781 319.46875 101.191406 C 318.941406 100.957031 318.421875 100.699219 317.917969 100.410156 C 317.414062 100.125 316.925781 99.808594 316.449219 99.472656 C 315.976562 99.132812 315.515625 98.769531 315.074219 98.382812 C 314.632812 97.996094 314.210938 97.589844 313.804688 97.15625 C 313.402344 96.726562 313.019531 96.273438 312.65625 95.804688 C 312.292969 95.332031 311.953125 94.84375 311.636719 94.335938 C 311.320312 93.828125 311.023438 93.308594 310.753906 92.769531 C 310.484375 92.230469 310.242188 91.679688 310.023438 91.117188 C 309.804688 90.554688 309.613281 89.980469 309.445312 89.398438 C 309.28125 88.816406 309.140625 88.222656 309.03125 87.625 C 308.917969 87.027344 308.835938 86.425781 308.777344 85.820312 C 308.722656 85.210938 308.695312 84.605469 308.695312 83.996094 C 308.695312 83.386719 308.722656 82.777344 308.777344 82.171875 C 308.835938 81.5625 308.917969 80.960938 309.03125 80.363281 C 309.140625 79.765625 309.28125 79.175781 309.445312 78.589844 C 309.613281 78.007812 309.804688 77.433594 310.023438 76.871094 C 310.242188 76.308594 310.484375 75.757812 310.753906 75.21875 C 311.023438 74.683594 311.320312 74.160156 311.636719 73.652344 C 311.953125 73.148438 312.292969 72.65625 312.65625 72.1875 C 313.019531 71.714844 313.402344 71.265625 313.804688 70.832031 C 314.210938 70.402344 314.632812 69.992188 315.074219 69.605469 C 315.515625 69.21875 315.976562 68.855469 316.449219 68.519531 C 316.925781 68.179688 317.414062 67.867188 317.917969 67.578125 C 318.421875 67.292969 318.941406 67.03125 319.46875 66.796875 C 319.996094 66.566406 320.53125 66.359375 321.078125 66.183594 C 321.625 66.003906 322.179688 65.859375 322.742188 65.738281 C 323.300781 65.621094 323.867188 65.53125 324.433594 65.472656 C 325.003906 65.410156 325.574219 65.382812 326.144531 65.382812 C 326.71875 65.382812 327.289062 65.410156 327.855469 65.472656 C 328.425781 65.53125 328.988281 65.621094 329.550781 65.738281 C 330.109375 65.859375 330.664062 66.003906 331.210938 66.183594 C 331.757812 66.359375 332.296875 66.566406 332.824219 66.796875 C 333.351562 67.03125 333.867188 67.292969 334.371094 67.578125 C 334.875 67.867188 335.367188 68.179688 335.839844 68.519531 C 336.316406 68.855469 336.773438 69.21875 337.214844 69.605469 C 337.65625 69.992188 338.082031 70.402344 338.484375 70.832031 C 338.890625 71.265625 339.273438 71.714844 339.636719 72.1875 C 339.996094 72.65625 340.335938 73.148438 340.65625 73.652344 C 340.972656 74.160156 341.265625 74.683594 341.535156 75.21875 C 341.804688 75.757812 342.050781 76.308594 342.269531 76.871094 C 342.488281 77.433594 342.679688 78.007812 342.84375 78.589844 C 343.011719 79.175781 343.148438 79.765625 343.261719 80.363281 C 343.371094 80.960938 343.457031 81.5625 343.511719 82.171875 C 343.566406 82.777344 343.597656 83.386719 343.597656 83.996094 Z M 343.597656 83.996094 " fill-opacity="1" fill-rule="nonzero"/><g clip-path="url(#f75f9718c7)"><path fill="#ffffff" d="M 399.4375 144.488281 C 398.621094 144.488281 397.863281 144.0625 397.445312 143.363281 L 390.464844 131.726562 C 390.101562 131.121094 390.03125 130.386719 390.277344 129.722656 C 390.519531 129.0625 391.054688 128.546875 391.722656 128.320312 C 401.867188 124.9375 408.578125 119.257812 412.710938 114.519531 C 401.816406 120.164062 381.65625 128.203125 355.230469 128.203125 C 328.84375 128.203125 308.707031 120.191406 297.800781 114.546875 C 301.945312 119.285156 308.652344 124.960938 318.738281 128.320312 C 319.40625 128.542969 319.941406 129.058594 320.183594 129.722656 C 320.425781 130.386719 320.359375 131.121094 319.996094 131.726562 L 313.015625 143.363281 C 312.582031 144.085938 311.742188 144.535156 310.945312 144.488281 C 274.03125 143.296875 258.503906 119.164062 257.859375 118.136719 C 257.628906 117.765625 257.507812 117.339844 257.507812 116.902344 C 257.507812 63.414062 281.070312 19.339844 281.308594 18.902344 C 281.464844 18.613281 281.683594 18.359375 281.941406 18.164062 C 305.847656 -0.078125 328.347656 0.214844 329.304688 0.234375 C 329.84375 0.246094 330.363281 0.445312 330.769531 0.796875 L 333.476562 3.121094 C 334.117188 3.675781 334.40625 4.53125 334.238281 5.359375 C 334.066406 6.1875 333.457031 6.855469 332.648438 7.109375 C 322.4375 10.285156 314.445312 14.289062 308.453125 18.042969 C 323.257812 12.335938 338.699219 9.539062 355.230469 9.539062 C 371.734375 9.539062 387.152344 12.324219 401.933594 18.011719 C 395.9375 14.265625 387.960938 10.269531 377.804688 7.109375 C 376.996094 6.855469 376.390625 6.1875 376.214844 5.359375 C 376.046875 4.53125 376.335938 3.675781 376.980469 3.121094 L 379.6875 0.796875 C 380.09375 0.445312 380.609375 0.246094 381.148438 0.234375 C 382.101562 0.222656 404.605469 -0.0820312 428.511719 18.164062 C 428.773438 18.359375 428.988281 18.613281 429.144531 18.902344 C 429.386719 19.339844 452.953125 63.414062 452.953125 116.902344 C 452.953125 117.339844 452.828125 117.765625 452.597656 118.136719 C 451.953125 119.164062 436.429688 143.296875 399.511719 144.488281 C 399.488281 144.488281 399.464844 144.488281 399.4375 144.488281 Z M 395.90625 131.753906 L 400.71875 139.78125 C 431.210938 138.269531 445.882812 119.570312 448.292969 116.183594 C 448.097656 66.992188 427.679688 26.167969 425.28125 21.550781 C 409.664062 9.773438 394.585938 6.316406 386.769531 5.300781 C 409.492188 14.078125 419.40625 26.132812 419.859375 26.691406 C 420.558594 27.558594 420.546875 28.800781 419.828125 29.652344 C 419.109375 30.503906 417.886719 30.726562 416.914062 30.183594 C 397.617188 19.425781 377.441406 14.191406 355.230469 14.191406 C 333.019531 14.191406 312.839844 19.425781 293.542969 30.1875 C 292.570312 30.730469 291.347656 30.503906 290.628906 29.652344 C 289.910156 28.800781 289.898438 27.5625 290.59375 26.695312 C 291.042969 26.132812 300.949219 14.089844 323.640625 5.320312 C 315.800781 6.351562 300.714844 9.832031 285.171875 21.550781 C 282.777344 26.175781 262.359375 67.042969 262.160156 116.1875 C 264.574219 119.574219 279.242188 138.269531 309.734375 139.78125 L 314.550781 131.757812 C 294.960938 124.113281 288.226562 108.855469 287.9375 108.179688 C 287.523438 107.21875 287.804688 106.101562 288.625 105.449219 C 289.445312 104.792969 290.601562 104.769531 291.445312 105.382812 C 291.699219 105.5625 316.964844 123.550781 355.230469 123.550781 C 393.496094 123.550781 418.761719 105.5625 419.011719 105.378906 C 419.855469 104.765625 421.011719 104.792969 421.828125 105.445312 C 422.648438 106.097656 422.929688 107.214844 422.515625 108.179688 C 422.226562 108.855469 415.492188 124.113281 395.90625 131.753906 Z M 395.90625 131.753906 " fill-opacity="1" fill-rule="nonzero"/></g><path fill="#ffffff" d="M 384.3125 104.933594 C 373.410156 104.933594 364.535156 95.539062 364.535156 83.996094 C 364.535156 72.449219 373.410156 63.054688 384.3125 63.054688 C 395.21875 63.054688 404.089844 72.449219 404.089844 83.996094 C 404.089844 95.539062 395.21875 104.933594 384.3125 104.933594 Z M 384.3125 67.707031 C 375.976562 67.707031 369.191406 75.015625 369.191406 83.996094 C 369.191406 92.976562 375.976562 100.28125 384.3125 100.28125 C 392.652344 100.28125 399.4375 92.976562 399.4375 83.996094 C 399.4375 75.015625 392.652344 67.707031 384.3125 67.707031 Z M 384.3125 67.707031 " fill-opacity="1" fill-rule="nonzero"/><path fill="#ffffff" d="M 326.144531 104.933594 C 315.238281 104.933594 306.367188 95.539062 306.367188 83.996094 C 306.367188 72.449219 315.238281 63.054688 326.144531 63.054688 C 337.050781 63.054688 345.921875 72.449219 345.921875 83.996094 C 345.921875 95.539062 337.050781 104.933594 326.144531 104.933594 Z M 326.144531 67.707031 C 317.804688 67.707031 311.023438 75.015625 311.023438 83.996094 C 311.023438 92.976562 317.804688 100.28125 326.144531 100.28125 C 334.484375 100.28125 341.269531 92.976562 341.269531 83.996094 C 341.269531 75.015625 334.484375 67.707031 326.144531 67.707031 Z M 326.144531 67.707031 " fill-opacity="1" fill-rule="nonzero"/><path fill="#ffffff" d="M 412.234375 38.089844 C 412.042969 38.089844 411.851562 38.042969 411.671875 37.945312 C 411.238281 37.703125 410.792969 37.484375 410.355469 37.265625 L 409.371094 36.769531 C 408.800781 36.472656 408.578125 35.769531 408.878906 35.199219 C 409.175781 34.632812 409.886719 34.410156 410.449219 34.707031 L 411.390625 35.183594 C 411.859375 35.417969 412.328125 35.652344 412.796875 35.910156 C 413.359375 36.21875 413.5625 36.925781 413.253906 37.492188 C 413.042969 37.871094 412.644531 38.089844 412.234375 38.089844 Z M 412.234375 38.089844 " fill-opacity="1" fill-rule="nonzero"/><path fill="#ffffff" d="M 405.253906 34.539062 C 405.089844 34.539062 404.917969 34.503906 404.757812 34.429688 C 401.144531 32.726562 397.375 31.207031 393.242188 29.773438 C 392.632812 29.566406 392.3125 28.902344 392.519531 28.296875 C 392.730469 27.691406 393.398438 27.371094 394 27.578125 C 398.21875 29.03125 402.058594 30.585938 405.75 32.324219 C 406.332031 32.601562 406.582031 33.292969 406.304688 33.871094 C 406.109375 34.292969 405.691406 34.539062 405.253906 34.539062 Z M 405.253906 34.539062 " fill-opacity="1" fill-rule="nonzero"/><path fill="#ffffff" d="M 298.226562 38.089844 C 297.816406 38.089844 297.414062 37.871094 297.207031 37.488281 C 296.894531 36.925781 297.101562 36.21875 297.664062 35.910156 C 315.710938 25.992188 334.539062 21.171875 355.230469 21.171875 C 367.101562 21.171875 378.242188 22.777344 389.300781 26.074219 C 389.917969 26.257812 390.265625 26.902344 390.085938 27.519531 C 389.898438 28.136719 389.25 28.492188 388.636719 28.300781 C 377.796875 25.070312 366.871094 23.5 355.230469 23.5 C 334.941406 23.5 316.480469 28.226562 298.785156 37.945312 C 298.605469 38.042969 298.414062 38.089844 298.226562 38.089844 Z M 298.226562 38.089844 " fill-opacity="1" fill-rule="nonzero"/></svg>